<?xml version="1.0" encoding="utf-8"?>
<!-- Generator: Adobe Illustrator 19.0.0, SVG Export Plug-In . SVG Version: 6.00 Build 0)  -->
<svg version="1.1" id="Warstwa_1" xmlns="http://www.w3.org/2000/svg" xmlns:xlink="http://www.w3.org/1999/xlink" x="0px" y="0px"
	 viewBox="-241 991 16 20" style="enable-background:new -241 991 16 20;" xml:space="preserve">
<style type="text/css">
	.st0{opacity:0.9;}
	.st1{fill:#FFFFFF;}
</style>
<title>Break</title>
<g id="Design" class="st0">
	<g id="Customization" transform="translate(-336.000000, -385.000000)">
		<g id="achivements_x2F_upload-time" transform="translate(332.000000, 383.000000)">
			<path id="Combined-Shape" class="st1" d="M-226,993c0.6,0,1,0.4,1,1v1c0,0.6-0.4,1-1,1h-1c-0.3,0-0.5,0.2-0.5,0.5
				c0,0.3,0.2,0.6,0.5,0.7c0.5,0.2,0.8,0.3,1,0.4c2.9,1.2,5,4.1,5,7.4c0,4.4-3.6,8-8,8s-8-3.6-8-8c0-3.4,2.1-6.2,5-7.4
				c0.2-0.1,0.6-0.2,1-0.4c0.3-0.1,0.5-0.4,0.5-0.7c0-0.3-0.2-0.5-0.5-0.5h-1c-0.6,0-1-0.4-1-1v-1c0-0.6,0.4-1,1-1H-226z M-229,1001
				c-0.6,0-1,0.4-1,1l0,0v2h-2c-0.6,0-1,0.4-1,1s0.4,1,1,1l0,0h2v2c0,0.6,0.4,1,1,1s1-0.4,1-1l0,0v-2h2c0.6,0,1-0.4,1-1s-0.4-1-1-1
				l0,0h-2v-2C-228,1001.4-228.4,1001-229,1001z"/>
		</g>
	</g>
</g>
</svg>
