<?xml version="1.0" encoding="utf-8"?>
<!-- Generator: Adobe Illustrator 19.0.0, SVG Export Plug-In . SVG Version: 6.00 Build 0)  -->
<svg version="1.1" id="Warstwa_1" xmlns="http://www.w3.org/2000/svg" xmlns:xlink="http://www.w3.org/1999/xlink" x="0px" y="0px"
	 viewBox="-239 991 20 20" style="enable-background:new -239 991 20 20;" xml:space="preserve">
<style type="text/css">
	.st0{fill:#1979FF;}
	.st1{fill:#EE4A64;}
</style>
<title>Combined Shape</title>
<g id="Design">
	<g id="Customization" transform="translate(-635.000000, -385.000000)">
		<g id="Combined-Shape">
			<g>
				<path id="path-1" class="st0" d="M406,1376c5.5,0,10,4.5,10,10s-4.5,10-10,10s-10-4.5-10-10S400.5,1376,406,1376z M406,1380.5
					h-0.1h-0.1c-0.7,0.1-1.2,0.7-1.2,1.5l0,0v2.5H402h-0.1c-0.8,0.1-1.4,0.7-1.4,1.5l0,0v0.1c0.1,0.8,0.7,1.4,1.5,1.4l0,0h2.5v2.5
					v0.1c0.1,0.8,0.7,1.4,1.5,1.4l0,0h0.1c0.8-0.1,1.4-0.7,1.4-1.5l0,0v-2.5h2.5h0.1c0.8-0.1,1.4-0.7,1.4-1.5l0,0v-0.1
					c-0.1-0.8-0.7-1.4-1.5-1.4l0,0h-2.5v-2.5v-0.1C407.4,1381.1,406.8,1380.5,406,1380.5L406,1380.5z"/>
			</g>
			<path id="path-1_1_" class="st1" d="M406,1376c5.5,0,10,4.5,10,10s-4.5,10-10,10s-10-4.5-10-10S400.5,1376,406,1376z M406,1380.5
				h-0.1h-0.1c-0.7,0.1-1.2,0.7-1.2,1.5l0,0v2.5H402h-0.1c-0.8,0.1-1.4,0.7-1.4,1.5l0,0v0.1c0.1,0.8,0.7,1.4,1.5,1.4l0,0h2.5v2.5
				v0.1c0.1,0.8,0.7,1.4,1.5,1.4l0,0h0.1c0.8-0.1,1.4-0.7,1.4-1.5l0,0v-2.5h2.5h0.1c0.8-0.1,1.4-0.7,1.4-1.5l0,0v-0.1
				c-0.1-0.8-0.7-1.4-1.5-1.4l0,0h-2.5v-2.5v-0.1C407.4,1381.1,406.8,1380.5,406,1380.5L406,1380.5z"/>
		</g>
	</g>
</g>
</svg>
