<?xml version="1.0" encoding="utf-8"?>
<!-- Generator: Adobe Illustrator 19.0.0, SVG Export Plug-In . SVG Version: 6.00 Build 0)  -->
<svg version="1.1" id="Warstwa_1" xmlns="http://www.w3.org/2000/svg" xmlns:xlink="http://www.w3.org/1999/xlink" x="0px" y="0px"
	 viewBox="-323.7 939.6 646.8 388.2" style="enable-background:new -323.7 939.6 646.8 388.2;" xml:space="preserve">
<style type="text/css">
	.st0{opacity:0.5;fill:#EE4A64;}
</style>
<title>Combined Shape</title>
<path id="XMLID_56_" class="st0" d="M-354.8,926.9v436.8h751.2V926.9H-354.8z M87.2,1135c0,15-11.2,26.2-26.2,28.1h-1.9H12.3v46.8
	c0,15-11.2,26.2-26.2,28.1h-1.9c-15,0-26.2-11.2-28.1-26.2v-1.9v-46.8h-46.8c-15,0-26.2-11.2-28.1-26.2v-1.9
	c0-15,11.2-26.2,26.2-28.1h1.9h48.7v-46.8c0-15,9.4-26.2,22.5-28.1h1.9h1.9c15,0,26.2,11.2,28.1,26.2v1.9v46.8h46.8
	c15,0,26.2,11.2,28.1,26.2V1135z"/>
</svg>
